<?xml version="1.0" standalone="no"?>
<!DOCTYPE svg PUBLIC "-//W3C//DTD SVG 20010904//EN"
 "http://www.w3.org/TR/2001/REC-SVG-20010904/DTD/svg10.dtd">
<svg version="1.0" xmlns="http://www.w3.org/2000/svg"
 width="2500.000000pt" height="2500.000000pt" viewBox="0 0 2500.000000 2500.000000"
 preserveAspectRatio="xMidYMid meet">
<metadata>
Created by potrace 1.11, written by Peter Selinger 2001-2013
</metadata>
<g transform="translate(0.000000,2500.000000) scale(0.100000,-0.100000)"
fill="#000000" stroke="none">
<path d="M12085 24755 c-2305 -138 -4297 -782 -6095 -1971 -839 -554 -1648
-1250 -2383 -2049 -181 -197 -211 -248 -205 -354 3 -57 11 -83 43 -146 51 -98
929 -1287 1584 -2145 362 -475 983 -1284 996 -1299 11 -11 20 -2 55 50 24 35
62 87 85 114 23 28 87 111 143 186 421 567 950 1120 1467 1535 313 251 665
490 1015 689 313 178 394 210 515 203 134 -6 97 26 1016 -888 506 -503 849
-836 877 -852 92 -54 200 -34 344 63 35 24 527 378 1093 788 2014 1456 3138
2261 3845 2753 480 334 872 612 1643 1163 505 361 586 423 581 440 -4 11 -9
44 -13 74 l-6 54 -165 89 c-1630 883 -3265 1370 -5015 1494 -310 22 -1120 27
-1420 9z"/>
<path d="M20340 21787 c-66 -18 -89 -34 -475 -327 -192 -146 -777 -587 -1300
-980 -1270 -955 -1551 -1169 -1673 -1274 l-103 -89 43 -25 c55 -33 447 -326
598 -447 796 -639 1456 -1411 1970 -2305 130 -226 208 -382 219 -440 13 -64 3
-138 -28 -197 -30 -60 -93 -126 -897 -944 -419 -426 -780 -796 -803 -824 -111
-134 -118 -258 -23 -410 22 -34 241 -324 489 -646 552 -718 1138 -1488 2268
-2984 1180 -1562 1781 -2351 2571 -3373 1 -2 29 52 62 120 34 68 91 168 127
223 98 149 342 661 508 1070 427 1048 694 2076 821 3151 115 965 112 1862 -9
2864 -261 2164 -1027 4095 -2303 5800 -420 560 -863 1060 -1423 1605 -426 415
-505 468 -639 432z"/>
<path d="M2048 18514 c-16 -8 -28 -19 -28 -24 0 -4 -23 -48 -51 -97 -64 -109
-343 -669 -428 -858 -614 -1361 -956 -2705 -1068 -4185 -25 -335 -25 -1244 0
-1580 114 -1522 435 -2845 1009 -4165 99 -226 347 -725 475 -955 634 -1135
1430 -2137 2425 -3056 218 -202 291 -258 373 -286 121 -42 187 -18 400 143 88
66 347 259 575 427 467 344 601 446 1085 817 187 144 630 481 985 749 355 268
646 491 648 495 1 4 -89 68 -200 141 -742 491 -1487 1229 -2040 2017 -271 388
-567 901 -589 1023 -12 71 3 148 43 215 18 30 193 212 446 465 230 229 586
591 792 805 206 215 420 438 476 496 106 110 200 240 190 264 -6 17 -1090
1441 -2827 3715 -712 932 -1595 2090 -1963 2573 -426 560 -674 877 -684 877
-9 -1 -29 -8 -44 -16z"/>
<path d="M19228 8337 c-20 -12 -52 -44 -70 -72 -385 -569 -759 -1014 -1195
-1418 -470 -435 -886 -738 -1477 -1076 -431 -247 -490 -271 -582 -236 -40 14
-80 49 -224 196 -96 97 -548 537 -1004 977 l-830 800 -55 -42 c-31 -24 -893
-666 -1916 -1428 -2507 -1866 -5337 -3977 -5353 -3993 -16 -15 -11 -18 324
-194 1141 -599 2410 -1048 3564 -1260 376 -69 572 -98 910 -135 454 -50 755
-66 1255 -66 641 0 1133 34 1740 121 2326 331 4385 1242 6115 2708 527 446
964 885 1517 1523 13 15 -41 90 -528 740 -299 397 -903 1205 -1342 1793 -439
589 -802 1073 -806 1077 -3 4 -23 -3 -43 -15z"/>
</g>
</svg>
